<?xml version="1.0" standalone="no"?>
<!DOCTYPE svg PUBLIC "-//W3C//DTD SVG 1.1//EN" "http://www.w3.org/Graphics/SVG/1.1/DTD/svg11.dtd" >
<svg xmlns="http://www.w3.org/2000/svg">
<metadata></metadata>
<defs>
<font id="peignot_demiregular" horiz-adv-x="1139" >
<font-face units-per-em="2048" ascent="1638" descent="-410" />
<missing-glyph horiz-adv-x="569" />
<glyph horiz-adv-x="0" />
<glyph unicode="&#xd;" horiz-adv-x="0" />
<glyph unicode=" "  horiz-adv-x="569" />
<glyph unicode="&#x09;" horiz-adv-x="569" />
<glyph unicode="&#xa0;" horiz-adv-x="569" />
<glyph unicode="!" horiz-adv-x="569" d="M168 93q0 50 35 85t83 35t82.5 -35t34.5 -86q0 -48 -34.5 -82t-82.5 -34q-49 0 -83.5 34.5t-34.5 82.5zM178 1207q0 44 33 76.5t78 32.5q31 0 58 -16t39.5 -43.5t12.5 -54.5q0 -6 -1 -14l-83 -937h-47l-88 932q-2 15 -2 24z" />
<glyph unicode="&#x22;" horiz-adv-x="827" d="M155 1413v51h180v-51l-30 -534h-119zM492 1413v51h180v-51l-30 -534h-120z" />
<glyph unicode="#" horiz-adv-x="1261" d="M8 428l48 147h228l114 320h-228l48 147h228l150 422h166l-150 -422h245l150 422h169l-150 -422h228l-48 -147h-228l-114 -320h228l-48 -147h-228l-150 -428h-166l150 428h-249l-150 -428h-166l151 428h-228zM449 575h250l113 320h-249z" />
<glyph unicode="$" d="M154 955q0 151 110.5 256.5t287.5 105.5q37 0 82 -6l20 116h78l-24 -135q69 -23 117.5 -62t98.5 -111l-73 -69q-60 113 -157 157l-75 -429l119 -47q54 -26 102 -61t80.5 -79t49 -96t16.5 -111q0 -106 -54.5 -194t-157.5 -139t-232 -51q-34 0 -56 4l-24 -141h-74l27 155 q-62 18 -133.5 71t-115.5 124l82 60q39 -65 92.5 -106.5t90.5 -51.5l78 465q-157 56 -221 101.5t-99 118t-35 155.5zM367 1012q0 -71 36 -119t145 -91l72 425q-18 2 -32 2q-97 0 -159 -61t-62 -156zM502 99q14 -2 29 -2q103 0 167 64t64 167q0 82 -40 136t-141 90z" />
<glyph unicode="%" horiz-adv-x="1821" d="M62 920q0 145 104.5 246.5t258.5 101.5q169 0 275 -104t106 -270q0 -162 -101.5 -260t-267.5 -98q-108 0 -194 49t-133.5 140t-47.5 195zM251 917q0 -110 25.5 -181t67 -99t91.5 -28q76 0 127.5 66t51.5 223q0 107 -27.5 177.5t-70.5 99.5t-89 29q-73 0 -124.5 -67 t-51.5 -220zM434 -26l837 1320h107l-832 -1320h-112zM1010 382q0 145 104.5 246.5t259.5 101.5q169 0 274.5 -104t105.5 -270q0 -162 -101.5 -260.5t-267.5 -98.5q-108 0 -194 49t-133.5 140.5t-47.5 195.5zM1199 379q0 -109 25.5 -180.5t67 -99.5t91.5 -28q76 0 127.5 66 t51.5 223q0 107 -27.5 177.5t-70.5 99.5t-89 29q-73 0 -124.5 -67t-51.5 -220z" />
<glyph unicode="&#x26;" horiz-adv-x="1214" d="M104 441q0 138 68.5 244t212.5 200l-129 192q13 117 96.5 191.5t199.5 74.5q114 0 185 -67.5t71 -165.5q0 -51 -19 -95.5t-50.5 -77t-108.5 -93.5l332 -482q11 62 11 115q0 95 -25 194h95q38 -111 38 -215q0 -97 -38 -209l180 -261h-223l-66 97q-65 -58 -157.5 -89.5 t-189.5 -31.5q-204 0 -343.5 139.5t-139.5 339.5zM296 425q0 -157 95.5 -253t242.5 -96q144 0 236 96l-394 579q-180 -133 -180 -326zM402 1177l127 -186q50 29 79.5 71.5t29.5 81.5q0 47 -34 81t-86 34q-43 0 -75 -23.5t-41 -58.5z" />
<glyph unicode="'" horiz-adv-x="580" d="M199 1413v51h181v-51l-34 -534h-114z" />
<glyph unicode="(" horiz-adv-x="682" d="M38 454q0 134 25 256t73 215t116.5 164t165.5 123q58 33 151 59v-83q-78 -34 -139 -95t-106.5 -157t-65.5 -213q-21 -117 -21 -255q0 -228 46.5 -378t131.5 -247q61 -70 154 -116v-90q-242 70 -386.5 276.5t-144.5 540.5z" />
<glyph unicode=")" horiz-adv-x="682" d="M111 -273q83 41 143.5 103t104.5 162.5t65 221.5q21 122 21 254q0 158 -28 286t-77.5 216t-115.5 148q-44 39 -113 70v83q219 -52 365 -239q166 -213 166 -578q0 -334 -144 -540t-387 -277v90z" />
<glyph unicode="*" horiz-adv-x="909" d="M109 993l38 142l277 -139l-45 298h152l-52 -298l284 142l43 -147l-299 -45l209 -221l-128 -90l-131 261l-154 -261l-121 92l226 212z" />
<glyph unicode="+" horiz-adv-x="1229" d="M92 436v172h436v436h172v-436h436v-172h-436v-436h-172v436h-436z" />
<glyph unicode="," horiz-adv-x="569" d="M59 -363l121 453q16 61 48.5 88t74.5 27t69 -27.5t27 -71.5q0 -40 -32 -82l-294 -391z" />
<glyph unicode="-" horiz-adv-x="682" d="M95 201v164l498 266v-164z" />
<glyph unicode="." horiz-adv-x="569" d="M152 90q0 49 33 82.5t78 33.5q46 0 79 -33.5t33 -81.5q0 -47 -33 -79.5t-79 -32.5t-78.5 32.5t-32.5 78.5z" />
<glyph unicode="/" horiz-adv-x="569" d="M5 -14l420 1318h113l-422 -1318h-111z" />
<glyph unicode="0" d="M62 555q0 171 52 328q41 124 116 219t170.5 144t194.5 49q205 0 345.5 -155t140.5 -429q0 -222 -83.5 -401t-209 -258t-258.5 -79q-180 0 -310 128q-158 158 -158 454zM290 627q0 -246 76 -408t197 -162t203.5 166.5t82.5 414.5q0 258 -73 419t-204 161q-75 0 -138 -55.5 t-103.5 -208.5t-40.5 -327z" />
<glyph unicode="1" d="M337 1166v78l356 31v-1275h-204v1176z" />
<glyph unicode="2" d="M156 0l524 733q53 72 69 117.5t16 101.5q0 112 -68.5 179.5t-183.5 67.5t-180.5 -66.5t-65.5 -194.5v-66h-97v74q0 151 102.5 249.5t283.5 98.5q112 0 202.5 -41t154.5 -133t64 -213q0 -70 -22 -132.5t-91 -157.5l-376 -522h502v-95h-834z" />
<glyph unicode="3" d="M252 1133v82h689l-333 -439h81q68 0 125 -24.5t83 -66.5t26 -93q0 -41 -16 -80t-65 -102l-318 -410h-262l415 537q33 43 33 77q0 41 -38.5 64t-237.5 23q-67 0 -146 -5l340 437h-376z" />
<glyph unicode="4" d="M47 453l574 813h227v-749h214v-100h-214v-417l-223 1v417l-569 -1zM206 517h419v599z" />
<glyph unicode="5" d="M270 0l403 569q33 47 33 79q0 28 -20 51.5t-66.5 33.5t-194.5 10q-52 0 -141 -3v526h617v-90h-418v-346q62 9 114 9q103 0 179 -23.5t107.5 -68.5t31.5 -109q0 -79 -60 -164l-331 -474h-254z" />
<glyph unicode="6" d="M161 368q0 82 29.5 185.5t117.5 290.5l199 422h209l-261 -574q41 32 98.5 49.5t113.5 17.5q120 0 212.5 -82t92.5 -257q0 -193 -121.5 -317.5t-298.5 -124.5q-112 0 -203 48t-139.5 140t-48.5 202zM379 337q0 -168 72 -237q49 -47 114 -47q94 0 144 94t50 230 q0 153 -56 225q-40 54 -115 54q-83 0 -146 -79.5t-63 -239.5z" />
<glyph unicode="7" d="M194 1171v95h839l-533 -1266h-233l503 1171h-576z" />
<glyph unicode="8" d="M140 350q0 129 75 235t215 159q-75 8 -125.5 70t-50.5 164q0 129 101.5 224.5t254.5 95.5q137 0 219 -77.5t82 -191.5q0 -74 -48 -150t-118 -120l19 -5q86 -22 157 -100.5t71 -221.5q0 -125 -58.5 -231t-163.5 -164.5t-230 -58.5q-116 0 -208.5 49t-142 136t-49.5 187z M366 337q0 -75 25 -148.5t65 -105t91 -31.5q56 0 106 33t78.5 105.5t28.5 183.5q0 169 -65 254q-48 63 -127 63t-128 -68q-74 -101 -74 -286zM447 984q0 -108 43 -164q33 -43 87 -43q65 0 103 65t38 174q0 76 -18 125t-47 68t-63 19q-57 0 -93 -48q-50 -67 -50 -196z" />
<glyph unicode="9" d="M180 847q0 176 133.5 310.5t307.5 134.5q159 0 262 -104.5t103 -271.5q0 -62 -14 -119q-15 -57 -57 -148l-303 -649h-211l249 548q-84 -29 -166 -29q-129 0 -216.5 91t-87.5 237zM390 875q0 -148 45.5 -208t112.5 -60q86 0 159 89t73 249q0 131 -62 209q-47 59 -121 59 q-53 0 -100 -32t-77 -112t-30 -194z" />
<glyph unicode=":" horiz-adv-x="569" d="M166 90q0 49 33 82.5t78 33.5q46 0 79 -33.5t33 -81.5q0 -47 -33 -79.5t-79 -32.5t-78.5 32.5t-32.5 78.5zM166 593q0 48 33 82t78 34q46 0 79 -34t33 -82q0 -46 -33 -79t-79 -33t-78.5 32.5t-32.5 79.5z" />
<glyph unicode=";" horiz-adv-x="569" d="M59 -363l121 453q16 61 48.5 88t74.5 27t69 -27.5t27 -71.5q0 -40 -32 -82l-294 -391zM166 593q0 48 33 82t78 34q46 0 79 -34t33 -82q0 -46 -33 -79t-79 -33t-78.5 32.5t-32.5 79.5z" />
<glyph unicode="&#x3c;" horiz-adv-x="1227" d="M30 438v169l1167 458v-183l-950 -360l950 -359v-184z" />
<glyph unicode="=" horiz-adv-x="1229" d="M92 221v172h1044v-172h-1044zM92 651v172h1044v-172h-1044z" />
<glyph unicode="&#x3e;" horiz-adv-x="1227" d="M30 -21v184l951 359l-951 360v183l1167 -458v-169z" />
<glyph unicode="?" horiz-adv-x="797" d="M73 962v29q0 147 48 216q76 111 244 111q153 0 270 -85.5t117 -251.5q0 -95 -43.5 -174t-151.5 -168q-49 -40 -68 -62.5t-32 -53.5q-18 -45 -33 -122t-19 -145h-55l-33 334q-2 21 -2 34q0 25 8.5 40t37.5 38q123 94 158.5 154t35.5 145q0 103 -59 163.5t-155 60.5 q-85 0 -133.5 -47.5t-51.5 -139.5l-2 -76h-81zM248 104q0 50 36 85.5t88 35.5q51 0 87 -35.5t36 -85.5q0 -53 -36.5 -90.5t-86.5 -37.5q-51 0 -87.5 37.5t-36.5 90.5z" />
<glyph unicode="@" horiz-adv-x="1638" d="M47 710q0 210 107 398t307.5 294t429.5 106q200 0 364 -79.5t250 -223.5t86 -316q0 -107 -31 -202q-32 -96 -81 -162t-101 -105.5t-107 -58.5t-103 -19q-50 0 -89.5 20t-58.5 56t-19 74q0 22 10 63q-32 -64 -60 -98q-45 -53 -105 -84t-134 -31q-121 0 -200.5 85 t-79.5 232q0 101 38.5 198.5t98 164.5t127.5 102t149 35q72 0 127.5 -29t85.5 -84q20 -38 25 -101l55 183h129l-118 -397q-29 -96 -39 -145q-7 -32 -7 -58q0 -49 25.5 -74.5t71.5 -25.5q59 0 132 54.5t123 168.5t50 238q0 148 -75 273t-218 192.5t-321 67.5 q-212 0 -389.5 -95t-273 -265t-95.5 -355q0 -155 59.5 -277t147 -202t187.5 -122q149 -63 332 -63q160 0 298 47q138 48 288 154l48 -64q-162 -119 -311 -171q-150 -52 -327 -52q-238 0 -419 97.5t-285 271.5t-104 384zM579 651q0 -110 48 -166.5t121 -56.5q48 0 93 26 t88.5 89t76.5 169t33 176q0 87 -46.5 136t-117.5 49q-52 0 -97.5 -26.5t-88.5 -80t-76.5 -140t-33.5 -175.5z" />
<glyph unicode="A" d="M43 0l514 1311l534 -1311h-242l-135 332h-434l-126 -332h-111zM313 417h368l-185 467z" />
<glyph unicode="B" horiz-adv-x="1175" d="M161 0v1256h486q135 0 217 -36t130.5 -116t48.5 -170q0 -115 -81 -195q-54 -54 -140 -78q113 -28 176 -89q92 -88 92 -227q0 -99 -50 -183.5t-136 -123t-262 -38.5h-481zM389 76h182q86 0 141 22q38 15 73 45.5t54 78t19 115.5q0 76 -26 132q-20 43 -57.5 79t-82 52 t-140.5 16h-163v-540zM389 697h166h5q80 1 134 29q56 30 83 79.5t27 134.5q0 126 -72 184q-70 57 -173 57h-4l-166 -1v-483z" />
<glyph unicode="C" horiz-adv-x="1327" d="M91 620q0 185 86.5 341.5t242 242.5t329.5 86q115 0 206 -35t159 -91q52 -42 126 -133l-71 -57q-58 87 -111 132.5t-126.5 71.5t-147.5 26q-104 0 -189 -47t-143 -126.5t-82.5 -180.5t-24.5 -215q0 -280 128 -428t308 -148q94 0 180.5 39.5t150.5 108.5q47 50 85 130 l81 -41q-38 -88 -94 -150q-82 -88 -197.5 -136t-245.5 -48q-145 0 -264.5 55t-202 142t-133 199.5t-50.5 261.5z" />
<glyph unicode="D" horiz-adv-x="1327" d="M166 0v1256h358q162 0 276 -31q115 -31 216.5 -116t163.5 -211t62 -294q0 -132 -44 -249q-31 -85 -85 -151t-116 -106.5t-156 -69t-215 -28.5h-460zM394 90h132q110 0 167 13q86 19 140 61q74 58 123 172t49 269q0 153 -44 271.5t-110 185t-154 94.5q-63 20 -185 20h-118 v-1086z" />
<glyph unicode="E" horiz-adv-x="1024" d="M175 0v1256h740v-85h-508v-479h479v-85h-479v-522h517v-85h-749z" />
<glyph unicode="F" horiz-adv-x="948" d="M185 0v1256h716v-85h-488v-484h445v-85h-445v-602h-228z" />
<glyph unicode="G" horiz-adv-x="1403" d="M90 637q0 178 86.5 332t243 240t340.5 86q125 0 217 -36.5t161 -97.5q50 -44 111 -130l-73 -52q-59 103 -164 165.5t-222 62.5q-184 0 -301 -137q-140 -165 -140 -453q0 -275 127 -420t316 -145q153 0 263 95l2 467h223v-455q-130 -103 -267 -149.5t-264 -46.5 q-176 0 -331 87t-241.5 246.5t-86.5 340.5z" />
<glyph unicode="H" horiz-adv-x="1327" d="M166 0v1256h237v-554h517v554h237v-1256h-237v607h-517v-607h-237z" />
<glyph unicode="I" horiz-adv-x="569" d="M175 0v1256h223v-1256h-223z" />
<glyph unicode="J" horiz-adv-x="606" d="M-19 0v62h12q121 0 171 38q54 41 54 158v998h223v-969q0 -95 -45 -164.5t-116 -101t-191 -31.5q-61 0 -108 10z" />
<glyph unicode="K" horiz-adv-x="1063" d="M185 0v1256h223v-1256h-223zM420 633l493 623h135l-420 -538l462 -718h-267z" />
<glyph unicode="L" horiz-adv-x="948" d="M190 0v1256h235v-1156h505v-100h-740z" />
<glyph unicode="M" horiz-adv-x="1554" d="M171 0v1256h263l360 -851l339 851h247v-1256h-230v1012l-424 -1083l-451 1095v-1024h-104z" />
<glyph unicode="N" horiz-adv-x="1327" d="M175 0v1256h216l659 -863l2 863h100v-1256h-105l-765 1005l-3 -1005h-104z" />
<glyph unicode="O" horiz-adv-x="1403" d="M76 638q0 133 50 254t135.5 209t181.5 135q123 60 264 60q164 0 309.5 -84t227.5 -244t82 -355q0 -287 -179 -469.5t-443 -182.5q-149 0 -276 62q-97 48 -175.5 130t-118.5 175q-58 135 -58 310zM332 615q0 -114 23 -221t71 -184t117.5 -120t153.5 -43q101 0 186.5 53.5 t138 185t52.5 337.5q0 127 -23 241t-69 189t-115.5 118t-163.5 43q-83 0 -149 -37t-113 -108.5t-74 -171.5q-35 -132 -35 -282z" />
<glyph unicode="P" horiz-adv-x="1100" d="M171 0v1256h466q127 0 220 -38.5t148 -125.5t55 -207q0 -129 -56 -211t-162.5 -118t-340.5 -36q-13 0 -105 1v-521h-225zM396 597q47 -2 69 -2q128 0 199.5 28.5t114.5 92.5t43 180q0 103 -39 172t-109 98q-71 29 -209 29h-69v-598z" />
<glyph unicode="Q" horiz-adv-x="1403" d="M76 620q0 289 186.5 482.5t444.5 193.5q164 0 310.5 -85t227.5 -244.5t81 -351.5q0 -155 -44 -264t-117.5 -188.5t-161.5 -129t-171 -56.5v-138h-206v126q-41 0 -115 24q-102 33 -182.5 96t-137 141.5t-86 178.5t-29.5 215zM332 615q0 -254 97 -410q73 -118 197 -150v154 h206v-135q101 40 163 153q79 147 79 396q0 126 -23 240.5t-68.5 189.5t-115.5 118t-164 43q-83 0 -149 -37t-113 -108t-74 -172q-35 -132 -35 -282z" />
<glyph unicode="R" d="M161 0v1256h475q252 0 353 -132q76 -99 76 -232q0 -125 -80 -205.5t-250 -101.5l334 -585h-261l-344 640q125 0 210 35t120.5 94t35.5 143q0 131 -77.5 204.5t-233.5 73.5h-116l-1 -1190h-241z" />
<glyph unicode="S" horiz-adv-x="1063" d="M133 903q0 89 46 184t138 148.5t214 53.5q129 0 226 -56.5t157 -170.5l-81 -52q-90 180 -251 180q-104 0 -158 -64t-54 -142q0 -68 37.5 -123.5t119.5 -90.5l143 -59q108 -45 167 -91t91.5 -115.5t32.5 -157.5q0 -166 -121.5 -280.5t-317.5 -114.5q-84 0 -155 25.5 t-138 80.5q-46 38 -81 94l88 66q42 -75 107 -119.5t143 -44.5q102 0 166.5 62t64.5 155q0 90 -42 146.5t-138 96.5l-119 50q-112 48 -169.5 92.5t-86.5 107.5t-29 139z" />
<glyph unicode="T" horiz-adv-x="833" d="M52 1171v85h735v-85h-249v-1171h-235v1171h-251z" />
<glyph unicode="U" horiz-adv-x="1251" d="M175 365v891h232v-881q0 -126 78.5 -204.5t198.5 -78.5q70 0 131.5 26.5t93.5 62.5t50 94q10 33 10 88v893h111v-917q0 -164 -115.5 -269.5t-329.5 -105.5q-149 0 -252 48.5t-155.5 141t-52.5 211.5z" />
<glyph unicode="V" horiz-adv-x="1100" d="M38 1256h249l348 -834l323 834h113l-500 -1301z" />
<glyph unicode="W" horiz-adv-x="1554" d="M47 1256h239l316 -836l128 322l-190 514h249l318 -829l320 829h113l-512 -1301l-241 640l-256 -633z" />
<glyph unicode="X" d="M33 1256h282l299 -448l320 448h137l-393 -547l462 -709h-292l-322 495l-356 -495h-132l422 595z" />
<glyph unicode="Y" horiz-adv-x="1063" d="M5 1256h277l325 -497l332 497h142l-415 -611v-645h-234l-3 609z" />
<glyph unicode="Z" d="M57 0l697 1166h-631v90h963l-702 -1166h692v-90h-1019z" />
<glyph unicode="[" horiz-adv-x="569" d="M100 -360v1626h363v-90h-192v-1437h196v-99h-367z" />
<glyph unicode="\" horiz-adv-x="569" d="M31 1304h114l419 -1318h-111z" />
<glyph unicode="]" horiz-adv-x="569" d="M116 -261h197v1437h-192v90h362v-1626h-367v99z" />
<glyph unicode="^" horiz-adv-x="1229" d="M184 602l353 862h156l352 -862h-166l-264 659l-265 -659h-166z" />
<glyph unicode="_" horiz-adv-x="1024" d="M0 -154h1024v-102h-1024v102z" />
<glyph unicode="`" horiz-adv-x="455" d="M-5 1252h159l187 -292h-90z" />
<glyph unicode="a" horiz-adv-x="797" d="M43 0l197 711q22 81 61.5 113.5t101.5 32.5q45 0 74 -17t50 -50q11 -17 28 -73l213 -717h-185l-73 256h-315l-69 -256h-83zM218 332h268l-111 385q-3 8 -9 13.5t-14 5.5q-9 0 -17 -6t-10 -14z" />
<glyph unicode="b" horiz-adv-x="948" d="M137 0v1394h175v-551q101 6 136 6q155 0 252.5 -59.5t144 -163.5t46.5 -213q0 -90 -27.5 -159.5t-68.5 -121.5q-30 -37 -64 -62q-47 -34 -111.5 -52t-157.5 -18h-325zM312 76q8 -1 23 -2q39 -3 86 -3q89 0 147.5 35t95.5 118t37 184q0 74 -21.5 150t-52.5 119.5 t-86.5 74.5t-136.5 31q-51 0 -92 -6v-701z" />
<glyph unicode="c" horiz-adv-x="872" d="M66 409q0 122 55.5 230.5t151.5 166t210 57.5q116 0 207 -59q66 -43 120 -128l-71 -41q-43 82 -89 116q-63 45 -143 45q-116 0 -179 -101t-63 -276q0 -163 60 -271t185 -108q74 0 129 37t122 143l61 -37q-65 -114 -147 -165t-189 -51q-204 0 -325 155q-95 121 -95 287z " />
<glyph unicode="d" horiz-adv-x="948" d="M62 437q0 100 36 184t94 134t135 74t178 24q70 0 133 -9v550h173v-1394h-251q-109 0 -175 14q-102 22 -170.5 73.5t-110.5 146.5t-42 203zM259 425q0 -175 81 -264.5t213 -89.5h85v702q-49 9 -105 9q-95 0 -153 -35t-89.5 -121.5t-31.5 -200.5z" />
<glyph unicode="e" horiz-adv-x="758" d="M142 161v515q0 66 18 99.5t51.5 47.5t124.5 14h351v-67h-329q-26 0 -35.5 -11t-9.5 -50v-235h308v-81h-308v-265q0 -30 15.5 -46t45.5 -16h337v-66h-432q-48 0 -77.5 16t-44.5 48.5t-15 96.5z" />
<glyph unicode="f" horiz-adv-x="530" d="M154 0v1183q0 99 69.5 156.5t232.5 57.5q29 0 61 -3v-78q-20 3 -43 3q-75 0 -108.5 -31.5t-33.5 -92.5v-351h194v-76h-194v-768h-178z" />
<glyph unicode="g" horiz-adv-x="909" d="M66 411q0 203 114.5 324t289.5 121q101 0 176.5 -42t142.5 -136l-73 -47q-54 94 -118 136q-45 29 -103 29q-63 0 -115 -35t-86 -124t-34 -225q0 -188 71.5 -277.5t164.5 -89.5q41 0 73 17.5t52 42.5q14 18 26 51t12 64v192h161v-805h-161v438q-93 -71 -203 -71 q-167 0 -278.5 118.5t-111.5 318.5z" />
<glyph unicode="h" horiz-adv-x="948" d="M142 0v1394h178v-887h315v332h175v-839h-175v431h-315v-431h-178z" />
<glyph unicode="i" horiz-adv-x="455" d="M119 1158q0 46 32 78t78 32q49 0 83.5 -33.5t34.5 -80.5q0 -46 -34 -79.5t-81 -33.5q-46 0 -79.5 34t-33.5 83zM143 0v834h170v-834h-170z" />
<glyph unicode="j" horiz-adv-x="455" d="M-38 -327h26q94 0 127.5 33.5t33.5 125.5v1007h173v-972q0 -136 -48 -189q-67 -72 -243 -72q-31 0 -69 5v62zM123 1158q0 46 32 78t78 32q49 0 83.5 -33.5t34.5 -80.5q0 -46 -34 -79.5t-81 -33.5q-46 0 -79.5 34t-33.5 83z" />
<glyph unicode="k" horiz-adv-x="833" d="M152 0v1394h173v-986l341 431h114l-284 -363l372 -476h-228l-315 389v-389h-173z" />
<glyph unicode="l" horiz-adv-x="455" d="M137 114v1280h175v-1292q0 -18 7.5 -24.5t30.5 -6.5h105v-71h-209q-53 0 -81 28.5t-28 85.5z" />
<glyph unicode="m" horiz-adv-x="1100" d="M133 0v678q0 95 23 132q32 53 108 53q59 0 92.5 -24t51.5 -80l137 -427l126 434q14 49 44 71t85 22q79 0 118.5 -42t39.5 -132v-685h-166v678q0 33 -5 40t-15 7q-12 0 -18 -5.5t-12 -27.5l-180 -635q-12 -44 -22 -53q-13 -11 -34 -11t-34.5 12.5t-29.5 65.5l-193 640 q-2 6 -6 9.5t-8 3.5q-6 0 -9 -3.5t-3 -11.5v-709h-90z" />
<glyph unicode="n" horiz-adv-x="948" d="M137 0v721q0 53 34.5 86.5t94.5 33.5q86 0 132 -68l306 -455q7 -11 15 -11q5 0 8 4.5t3 20.5v498h80v-773q0 -39 -15 -56.5t-41 -17.5q-44 0 -77 50l-429 652q-4 7 -12 7q-6 0 -10 -5t-4 -14v-673h-85z" />
<glyph unicode="o" horiz-adv-x="985" d="M57 425q0 115 55.5 216.5t160 158t217.5 56.5q117 0 220 -56t164 -165.5t61 -232.5q0 -105 -39 -187t-96.5 -134.5t-132 -81t-157.5 -28.5q-190 0 -321.5 133.5t-131.5 320.5zM263 421q0 -192 88 -303q65 -82 166 -82q88 0 142 74q77 104 77 318q0 87 -26 173 q-15 50 -42.5 94.5t-71.5 71.5t-103 27q-115 0 -172.5 -108.5t-57.5 -264.5z" />
<glyph unicode="p" horiz-adv-x="948" d="M137 -389v1228l183 -1q233 0 337.5 -46t166.5 -147t62 -237q0 -114 -44 -202t-106 -130.5t-145 -60.5q-50 -10 -136 -10h-138v-394h-180zM317 76q51 -5 83 -5q115 0 171 31t87 104.5t31 191.5q0 194 -82.5 285t-236.5 91q-18 0 -53 -1v-697z" />
<glyph unicode="q" horiz-adv-x="985" d="M57 425q0 115 55.5 216.5t160 158t217.5 56.5q117 0 220 -56t164 -165.5t61 -232.5q0 -99 -34.5 -177t-85 -129t-107 -78.5t-136.5 -40.5v-224h-143v224q-157 26 -264.5 154.5t-107.5 293.5zM263 418q0 -116 30 -196t69 -124q27 -29 67 -49v179h143v-179q48 17 77 49 q40 45 63.5 129.5t23.5 182.5q0 159 -60.5 271.5t-182.5 112.5q-92 0 -152 -78q-78 -101 -78 -298z" />
<glyph unicode="r" horiz-adv-x="833" d="M137 0v839h325q138 0 195 -38q101 -67 101 -192q0 -80 -46 -132t-134 -69l227 -408h-203l-209 420q64 0 107 15.5t65.5 57t22.5 108.5q0 73 -24.5 111t-66.5 55.5t-121 17.5q-18 0 -64 -3l-2 -782h-173z" />
<glyph unicode="s" horiz-adv-x="645" d="M52 604q0 71 37.5 127.5t99.5 82t180 25.5q85 0 162 -14v-62q-63 13 -130 13q-102 0 -144 -33t-42 -81q0 -35 21 -61t110 -79l142 -83q112 -66 112 -197q0 -113 -76 -178t-242 -65q-109 0 -211 22v64q71 -14 147 -14q81 0 120 11.5t64 40.5t25 68q0 42 -28 77t-126 88 l-67 35q-85 46 -119.5 97.5t-34.5 115.5z" />
<glyph unicode="t" horiz-adv-x="569" d="M28 773v66h521v-66h-175v-773h-171v773h-175z" />
<glyph unicode="u" horiz-adv-x="872" d="M133 296v543h180v-592q0 -48 21 -86t63 -58.5t90 -20.5q80 0 128.5 55.5t48.5 182.5v519h81v-514q0 -132 -27 -193.5t-100 -103.5t-174 -42q-149 0 -230 78t-81 232z" />
<glyph unicode="v" horiz-adv-x="797" d="M31 839h194l209 -690q5 -16 9.5 -20.5t9.5 -4.5q8 0 14 5.5t12 26.5l199 683h85l-194 -664q-36 -122 -72 -155.5t-95 -33.5t-96.5 31.5t-63.5 119.5z" />
<glyph unicode="w" horiz-adv-x="1214" d="M31 839h185l220 -716q3 -8 8 -12t12 -4q5 0 9 3q6 6 9 16l88 289l-130 424h194l217 -715q2 -7 7.5 -11t11.5 -4q7 0 12 4q7 7 10 17l207 709h94l-222 -758q-14 -46 -48 -69.5t-97 -23.5q-65 0 -102.5 26.5t-51.5 73.5l-57 182l-50 -154q-24 -75 -55 -100.5t-87 -25.5 q-76 0 -112.5 34.5t-50.5 83.5z" />
<glyph unicode="x" horiz-adv-x="833" d="M36 839h213l199 -294l226 294h102l-278 -370l323 -469h-214l-223 320l-241 -320h-102l294 393z" />
<glyph unicode="y" horiz-adv-x="797" d="M19 839h192l235 -607l246 607h90l-505 -1232h-90l159 386z" />
<glyph unicode="z" horiz-adv-x="682" d="M45 0l341 775h-291v64h388q47 0 68 -17.5t21 -45.5q0 -29 -20 -74l-270 -631h382v-71h-619z" />
<glyph unicode="{" horiz-adv-x="819" d="M60 483v116q112 13 170.5 53.5t77 94t18.5 157.5v121q0 197 37 283t128.5 137.5t268.5 61.5v-116q-70 -6 -117.5 -28t-77.5 -62.5t-41 -97.5t-11 -148v-81q0 -172 -24 -248t-88 -124.5t-177 -60.5q73 -8 121 -27.5t88.5 -62.5t59.5 -109q20 -67 20 -234v-81 q0 -118 21.5 -185t75 -104.5t150.5 -46.5v-117q-113 6 -187.5 29t-122 61t-75 86.5t-36.5 106.5q-13 85 -13 200v121q0 106 -20 160t-79.5 93.5t-166.5 51.5z" />
<glyph unicode="|" horiz-adv-x="455" d="M143 -512v2048h170v-2048h-170z" />
<glyph unicode="}" horiz-adv-x="819" d="M60 -309q70 7 117.5 28t77.5 61t41 100q12 60 12 147v81q0 174 24 249q24 76 87.5 123.5t176.5 60.5q-71 8 -119 27.5t-89.5 62t-60.5 108.5q-19 67 -19 235v81q0 123 -22.5 188t-77 102t-148.5 46v116q116 -6 190 -28.5t121.5 -61t74.5 -87.5t35 -107q13 -84 13 -198 v-121q0 -104 19.5 -158.5t78 -94t168.5 -52.5v-116q-109 -13 -168 -52.5t-78.5 -93.5t-19.5 -159v-121q0 -196 -36 -281q-36 -86 -129 -139.5t-269 -62.5v117z" />
<glyph unicode="~" horiz-adv-x="1229" d="M19 317q31 174 95 261q83 114 215 114q40 0 94 -12q34 -7 121 -40l159 -59q115 -43 146 -51q32 -9 54 -9q54 0 104 45.5t85 160.5h117q-40 -205 -135 -306q-70 -73 -167 -73q-47 0 -107 14q-60 15 -174 60l-127 50q-90 35 -115 41q-26 7 -52 7q-67 0 -117.5 -46 t-77.5 -157h-118z" />
<glyph unicode="&#xa0;" />
<glyph unicode="&#xa1;" horiz-adv-x="569" d="M166 830q0 48 34 82t83 34t83.5 -34.5t34.5 -82.5q0 -50 -35 -85t-83 -35t-82.5 35t-34.5 86zM170 -280q0 6 1 15l83 936h47l88 -932q1 -14 1 -23q0 -44 -32.5 -76.5t-77.5 -32.5q-31 0 -58 15.5t-39.5 43.5t-12.5 54z" />
<glyph unicode="&#xa2;" d="M156 442q0 124 56 233t154 164.5t203 55.5q26 0 65 -5l39 186h71l-40 -201q63 -21 110 -61.5t86 -104.5l-71 -41q-33 62 -65 94t-72 48l-143 -731q28 -6 53 -6q72 0 127.5 38t120.5 143l62 -38q-66 -115 -147.5 -165.5t-189.5 -50.5q-21 0 -41 2l-34 -177h-74l37 189 q-143 45 -225 158.5t-82 269.5zM355 454q0 -132 38 -228q29 -73 89 -119l141 721q-9 1 -20 1q-109 0 -167 -74q-81 -103 -81 -301z" />
<glyph unicode="&#xa3;" d="M175 0l162 540h-143v86h169l115 384q40 133 138.5 206t238.5 73q161 0 249 -101l-64 -62q-31 29 -70 43t-72 14q-64 0 -117 -43.5t-80 -132.5l-115 -381h234v-86h-259l-135 -445h498v-95h-749z" />
<glyph unicode="&#xa4;" horiz-adv-x="1261" d="M145 345l139 137q-49 69 -68.5 124.5t-19.5 126.5q0 70 19.5 127t68.5 129l-139 134l96 97l138 -136q67 47 122.5 66t127.5 19q73 0 129 -19.5t124 -68.5l137 139l97 -97l-139 -138q48 -65 68 -120.5t20 -129.5q0 -73 -19.5 -128.5t-69.5 -124.5l140 -137l-97 -96 l-136 136q-68 -47 -124 -65.5t-128 -18.5q-74 0 -129 19t-123 67l-139 -139zM344 734q0 -118 83.5 -201.5t202.5 -83.5q120 0 203.5 83.5t83.5 201.5q0 75 -38.5 144t-107.5 106.5t-140 37.5q-72 0 -141 -37.5t-107.5 -106.5t-38.5 -144z" />
<glyph unicode="&#xa5;" d="M31 1256h277l325 -497l332 497h142l-365 -538h241v-99h-289v-137h289v-99h-289l-2 -383l-237 1v382h-289v99h289v137h-289v99h214z" />
<glyph unicode="&#xa6;" horiz-adv-x="455" d="M143 -256v512h170v-512h-170zM143 768v512h170v-512h-170z" />
<glyph unicode="&#xa7;" horiz-adv-x="909" d="M38 569q0 100 63.5 161.5t169.5 61.5q14 0 40 -3q-66 67 -108.5 144.5t-42.5 141.5q0 98 75.5 165.5t207.5 67.5q102 0 187.5 -43t145.5 -127l-90 -57q-40 68 -99 103.5t-118 35.5q-64 0 -100 -32t-36 -77q0 -24 12 -50t54 -72q27 -30 163 -168t196 -209q60 -72 87 -137 q19 -46 19 -99q0 -65 -29.5 -117t-85 -80.5t-112.5 -28.5q-11 0 -32 2q91 -111 126 -189q19 -44 19 -92q0 -93 -81.5 -165t-220.5 -72q-102 0 -181.5 45t-132.5 122l83 64q43 -60 103 -100.5t120 -40.5t93.5 30.5t33.5 71.5q0 34 -17 68t-63 82l-330 346q-66 70 -92.5 127.5 t-26.5 119.5zM206 605q0 -46 42 -90l229 -238q27 -28 50 -39t50 -11q55 0 88.5 31.5t33.5 77.5q0 54 -52 107l-236 242q-33 34 -92 34q-47 0 -80 -33t-33 -81z" />
<glyph unicode="&#xa8;" horiz-adv-x="455" d="M-19 1107q0 34 24.5 58.5t60.5 24.5t61 -24t25 -57q0 -35 -26 -60t-61 -25t-59.5 24.5t-24.5 58.5zM303 1107q0 34 25 58.5t60 24.5q36 0 61 -24t25 -57q0 -35 -25.5 -60t-61.5 -25q-35 0 -59.5 24.5t-24.5 58.5z" />
<glyph unicode="&#xa9;" horiz-adv-x="1638" d="M45 732q0 203 104 389t290 286t380 100t380 -100t290 -286t104 -389q0 -127 -39 -244t-107 -210t-163 -166t-216 -114q-122 -41 -249 -41q-169 0 -310.5 65t-236.5 162t-151 213q-76 159 -76 335zM131 732q0 -158 68 -299q49 -103 133.5 -189t210.5 -143.5t276 -57.5 q156 0 297 67q103 50 189 134.5t144 210.5t58 277q0 180 -92.5 345.5t-257 254.5t-338.5 89q-173 0 -338 -88.5t-257.5 -254t-92.5 -346.5zM419 738q0 126 52.5 232.5t146 163t206.5 56.5q152 0 254.5 -89.5t113.5 -219.5h-114q-17 90 -83.5 144t-162.5 54 q-117 0 -197 -89.5t-80 -246.5q0 -103 37 -183.5t105.5 -122.5t148.5 -42q91 0 154.5 50t82.5 135h114q-17 -127 -115.5 -211t-239.5 -84q-179 0 -301 126.5t-122 326.5z" />
<glyph unicode="&#xaa;" horiz-adv-x="477" d="M4 782l128 427q14 47 39.5 67t66.5 20q44 0 69 -26q16 -16 30 -58l138 -430h-120l-47 154h-205l-45 -154h-54zM118 981h174l-72 231q-2 5 -6 8t-9 3q-6 0 -12 -4q-4 -3 -6 -7z" />
<glyph unicode="&#xab;" horiz-adv-x="1024" d="M137 327v194l327 238v-176l-218 -161l218 -166v-175zM552 327v194l327 238v-176l-218 -161l218 -166v-175z" />
<glyph unicode="&#xac;" horiz-adv-x="1229" d="M92 651v172h1044v-602h-172v430h-872z" />
<glyph unicode="&#xad;" horiz-adv-x="682" d="M95 201v164l498 266v-164z" />
<glyph unicode="&#xae;" horiz-adv-x="1634" d="M66 731q0 203 104.5 388.5t290.5 285.5t374 100q195 0 381 -100t290 -286t104 -388q0 -127 -39 -243q-40 -117 -107 -210q-68 -93 -163 -166t-216 -114t-247 -41q-129 0 -246 40.5t-209 108.5q-93 69 -165 164t-112 215.5t-40 245.5zM152 732q0 -112 35.5 -219t99.5 -192 q65 -85 147 -145q82 -61 186 -97t218 -36q155 0 295 67q103 50 189 134t144 210.5t58 277.5q0 179 -92.5 344t-257.5 254t-339 89q-167 0 -332.5 -88.5t-258 -253.5t-92.5 -345zM533 309v852h286q125 0 183 -16q79 -21 126.5 -77.5t47.5 -144.5q0 -105 -72 -166 q-46 -39 -133 -49q62 -9 109.5 -47t65 -89t19.5 -144q1 -63 3.5 -81t10.5 -38h-124q-7 17 -9 31q-3 21 -5 94q-3 73 -14 109q-11 37 -41 64t-71 37q-42 11 -131 11h-128v-346h-123zM656 754h156q92 0 142 18.5t74.5 58t24.5 83.5q0 47 -26.5 83.5t-75.5 50.5q-50 15 -143 15 h-152v-309z" />
<glyph unicode="&#xaf;" horiz-adv-x="455" d="M-24 1045v119h503v-119h-503z" />
<glyph unicode="&#xb0;" horiz-adv-x="819" d="M110 1207q0 78 40.5 150.5t112.5 111t148 38.5t148 -38.5t112.5 -111t40.5 -150.5q0 -77 -40 -148.5t-111.5 -111.5t-149.5 -40t-150 40t-111.5 111.5t-39.5 148.5zM221 1208q0 -79 55.5 -134.5t134.5 -55.5t135 55.5t56 134.5q0 78 -55.5 133.5t-135.5 55.5t-135 -55.5 t-55 -133.5z" />
<glyph unicode="&#xb1;" horiz-adv-x="1229" d="M92 0v160h1044v-160h-1044zM92 557v160h436v327h172v-327h436v-160h-436v-317h-172v317h-436z" />
<glyph unicode="&#xb2;" horiz-adv-x="682" d="M70 518l348 448q48 62 48 125t-44 105t-117 42q-52 0 -84.5 -17.5t-56 -53t-22.5 -86.5v-40h-63v45q0 90 66.5 149.5t178.5 59.5q129 0 205 -68t76 -163q0 -79 -80 -181l-239 -308h326v-57h-542z" />
<glyph unicode="&#xb3;" horiz-adv-x="682" d="M119 1226v51h466l-225 -274h55q78 0 118 -33.5t40 -81.5q0 -25 -10.5 -49.5t-44.5 -64.5l-215 -256h-177l280 336q23 26 23 48q0 25 -25 39.5t-158 14.5q-49 0 -103 -3l231 273h-255z" />
<glyph unicode="&#xb4;" horiz-adv-x="455" d="M109 960l194 294h159l-263 -294h-90z" />
<glyph unicode="&#xb5;" horiz-adv-x="872" d="M133 -389v1228h180v-592q0 -48 21 -86t63 -58.5t91 -20.5q79 0 127.5 55.5t48.5 182.5v519h81v-514q0 -132 -27 -194t-100 -103.5t-162 -41.5q-92 0 -143 40v-415h-180z" />
<glyph unicode="&#xb6;" horiz-adv-x="1270" d="M74 974q0 152 65 268t167.5 169t296.5 53h550v-123h-114v-1699h-148v1699h-244v-1699h-147v885q-198 9 -312 128.5t-114 318.5z" />
<glyph unicode="&#xb8;" horiz-adv-x="455" d="M-19 -332l19 62q91 -55 189 -55q47 0 75.5 24t28.5 57q0 32 -27.5 56.5t-76.5 24.5q-39 0 -66 -10l55 173h47l-26 -104q19 3 37 3q73 0 123 -43.5t50 -92.5q0 -52 -47 -88q-66 -52 -161 -52q-114 0 -220 45z" />
<glyph unicode="&#xb9;" horiz-adv-x="682" d="M213 1218v47l231 18v-765h-132v705z" />
<glyph unicode="&#xba;" horiz-adv-x="592" d="M10 1044q0 104 76 177.5t195 73.5q126 0 212.5 -83t86.5 -196q0 -73 -34.5 -130t-103.5 -89t-143 -32q-79 0 -146.5 37t-105 104.5t-37.5 137.5zM144 1030q0 -108 48.5 -167.5t110.5 -59.5q58 0 103 56.5t45 165.5q0 112 -56 181q-42 52 -104 52q-55 0 -101 -58.5 t-46 -169.5z" />
<glyph unicode="&#xbb;" horiz-adv-x="1024" d="M137 73v178l213 166l-208 166v178l322 -249v-185zM557 73v178l213 166l-209 166v178l323 -249v-185z" />
<glyph unicode="&#xbc;" horiz-adv-x="1708" d="M78 1218v47l231 18v-765h-132v705zM246 -19l931 1318h107l-929 -1318h-109zM971 272l373 487h148v-449h138v-60h-138v-250h-145v251l-370 -1zM1074 310h273v360z" />
<glyph unicode="&#xbd;" horiz-adv-x="1708" d="M102 1218v47l231 18v-765h-132v705zM270 -19l931 1318h107l-929 -1318h-109zM1066 0l348 448q48 62 48 125t-44 105t-117 42q-52 0 -84.5 -17.5t-56 -53t-22.5 -86.5v-40h-63v44q0 90 66.5 150t178.5 60q129 0 205 -68t76 -163q0 -79 -80 -181l-239 -308h326v-57h-542z " />
<glyph unicode="&#xbe;" horiz-adv-x="1708" d="M45 1226v51h466l-225 -274h55q78 0 118 -33.5t40 -81.5q0 -25 -10.5 -49.5t-44.5 -64.5l-215 -256h-177l280 336q23 26 23 48q0 25 -25 39.5t-158 14.5q-49 0 -103 -3l231 273h-255zM276 -19l932 1318h107l-930 -1318h-109zM1002 272l373 487h148v-449h138v-60h-138v-250 h-145v251l-370 -1zM1105 310h273v360z" />
<glyph unicode="&#xbf;" horiz-adv-x="797" d="M43 -50q0 95 43.5 174.5t151.5 167.5q49 40 67.5 62.5t31.5 53.5q19 46 34 123t19 145h55l33 -335q2 -18 2 -33q0 -26 -8.5 -40.5t-38.5 -37.5q-122 -94 -157.5 -154t-35.5 -145q0 -104 59 -164t155 -60q85 0 133.5 47t51.5 139l2 76h81v-28q0 -148 -48 -217 q-77 -110 -245 -110q-152 0 -269 85t-117 251zM300 827q0 54 36.5 91t86.5 37q51 0 87.5 -37t36.5 -91q0 -50 -36 -85.5t-88 -35.5q-51 0 -87 35.5t-36 85.5z" />
<glyph unicode="&#xc0;" d="M43 0l514 1311l534 -1311h-242l-135 332h-434l-126 -332h-111zM211 1662h159l187 -292h-90zM313 417h368l-185 467z" />
<glyph unicode="&#xc1;" d="M43 0l514 1311l534 -1311h-242l-135 332h-434l-126 -332h-111zM313 417h368l-185 467zM552 1370l194 294h159l-263 -294h-90z" />
<glyph unicode="&#xc2;" d="M43 0l514 1311l534 -1311h-242l-135 332h-434l-126 -332h-111zM275 1346l201 299h145l204 -299h-90l-185 216l-185 -216h-90zM313 417h368l-185 467z" />
<glyph unicode="&#xc3;" d="M43 0l514 1311l534 -1311h-242l-135 332h-434l-126 -332h-111zM313 417h368l-185 467zM329 1398q8 82 56.5 126.5t123.5 44.5q28 0 83 -14l96 -25q26 -7 39 -7q27 0 51 18.5t35 51.5h75q-7 -80 -58.5 -127t-130.5 -47q-38 0 -86 15l-68 21q-29 10 -49 10q-34 0 -58 -17 t-33 -45z" />
<glyph unicode="&#xc4;" d="M43 0l514 1311l534 -1311h-242l-135 332h-434l-126 -332h-111zM310 1493q0 34 24.5 58.5t60.5 24.5t61 -24t25 -57q0 -35 -26 -60t-61 -25t-59.5 24.5t-24.5 58.5zM313 417h368l-185 467zM632 1493q0 34 25 58.5t60 24.5q36 0 61 -24t25 -57q0 -35 -25.5 -60t-61.5 -25 q-35 0 -59.5 24.5t-24.5 58.5z" />
<glyph unicode="&#xc5;" d="M43 0l514 1311l534 -1311h-242l-135 332h-434l-126 -332h-111zM313 417h368l-185 467zM339 1587q0 88 60.5 148t147.5 60q90 0 153 -62t63 -149q0 -88 -61.5 -150t-148.5 -62q-81 0 -147.5 56t-66.5 159zM408 1584q0 -61 42.5 -104t101.5 -43q57 0 97.5 41.5t40.5 101.5 q0 57 -41.5 98t-103.5 41q-57 0 -97 -39.5t-40 -95.5z" />
<glyph unicode="&#xc6;" horiz-adv-x="1706" d="M-7 0l808 1256h801v-85h-507v-479h479v-85h-479v-517h517v-90h-744l-3 422h-473l-276 -422h-123zM440 507h423v657z" />
<glyph unicode="&#xc7;" horiz-adv-x="1327" d="M91 620q0 185 86.5 341.5t242 242.5t329.5 86q115 0 206 -35t159 -91q52 -42 126 -133l-71 -57q-58 87 -111 132.5t-126.5 71.5t-147.5 26q-104 0 -189 -47t-143 -126.5t-82.5 -180.5t-24.5 -215q0 -280 128 -428t308 -148q94 0 180.5 39.5t150.5 108.5q47 50 85 130 l81 -41q-34 -80 -82 -136q-73 -85 -183 -138.5t-248 -59.5l-17 -66q19 3 37 3q73 0 123 -43.5t50 -92.5q0 -52 -47 -88q-66 -52 -161 -52q-114 0 -220 45l19 62q91 -55 189 -55q48 0 76 24t28 57q0 32 -27.5 56.5t-76.5 24.5q-39 0 -66 -10l43 135q-263 11 -443.5 200 t-180.5 458z" />
<glyph unicode="&#xc8;" horiz-adv-x="1024" d="M175 0v1256h740v-85h-508v-479h479v-85h-479v-522h517v-85h-749zM314 1638h159l187 -292h-90z" />
<glyph unicode="&#xc9;" horiz-adv-x="1024" d="M175 0v1256h740v-85h-508v-479h479v-85h-479v-522h517v-85h-749zM428 1346l194 294h159l-263 -294h-90z" />
<glyph unicode="&#xca;" horiz-adv-x="1024" d="M175 0v1256h740v-85h-508v-479h479v-85h-479v-522h517v-85h-749zM265 1346l201 299h145l204 -299h-90l-185 216l-185 -216h-90z" />
<glyph unicode="&#xcb;" horiz-adv-x="1024" d="M175 0v1256h740v-85h-508v-479h479v-85h-479v-522h517v-85h-749zM319 1493q0 34 24.5 58.5t60.5 24.5t61 -24t25 -57q0 -35 -26 -60t-61 -25t-59.5 24.5t-24.5 58.5zM641 1493q0 34 25 58.5t60 24.5q36 0 61 -24t25 -57q0 -35 -25.5 -60t-61.5 -25q-35 0 -59.5 24.5 t-24.5 58.5z" />
<glyph unicode="&#xcc;" horiz-adv-x="569" d="M51 1661h159l187 -292h-90zM175 0v1256h223v-1256h-223z" />
<glyph unicode="&#xcd;" horiz-adv-x="569" d="M165 1369l194 294h159l-263 -294h-90zM175 0v1256h223v-1256h-223z" />
<glyph unicode="&#xce;" horiz-adv-x="569" d="M1 1369l201 299h145l204 -299h-90l-185 216l-185 -216h-90zM175 0v1256h223v-1256h-223z" />
<glyph unicode="&#xcf;" horiz-adv-x="569" d="M37 1516q0 34 24.5 58.5t60.5 24.5t61 -24t25 -57q0 -35 -26 -60t-61 -25t-59.5 24.5t-24.5 58.5zM175 0v1256h223v-1256h-223zM359 1516q0 34 25 58.5t60 24.5q36 0 61 -24t25 -57q0 -35 -25.5 -60t-61.5 -25q-35 0 -59.5 24.5t-24.5 58.5z" />
<glyph unicode="&#xd0;" horiz-adv-x="1327" d="M0 643v104h166v509h358q162 0 276 -31q115 -31 216 -116t163.5 -211t62.5 -294q0 -132 -44 -249q-32 -85 -86 -151t-115.5 -106.5t-156 -69t-215.5 -28.5h-459v643h-166zM393 90h133q109 0 166 13q86 19 141 61q74 58 123 172t49 269q0 153 -44 271.5t-110 185t-154 94.5 q-63 20 -185 20h-119v-429h251v-104h-251v-553z" />
<glyph unicode="&#xd1;" horiz-adv-x="1327" d="M175 0v1256h216l659 -863l2 863h100v-1256h-105l-765 1005l-3 -1005h-104zM395 1411q8 82 56.5 126.5t123.5 44.5q28 0 83 -14l96 -25q26 -7 39 -7q27 0 51 18.5t35 51.5h75q-7 -80 -58.5 -127t-130.5 -47q-38 0 -86 15l-68 21q-29 10 -49 10q-34 0 -58 -17t-33 -45z" />
<glyph unicode="&#xd2;" horiz-adv-x="1403" d="M76 638q0 133 50 254t135.5 209t181.5 135q123 60 264 60q164 0 309.5 -84t227.5 -244t82 -355q0 -287 -179 -469.5t-443 -182.5q-149 0 -276 62q-97 48 -175.5 130t-118.5 175q-58 135 -58 310zM332 615q0 -114 23 -221t71 -184t117.5 -120t153.5 -43q101 0 186.5 53.5 t138 185t52.5 337.5q0 127 -23 241t-69 189t-115.5 118t-163.5 43q-83 0 -149 -37t-113 -108.5t-74 -171.5q-35 -132 -35 -282zM469 1659h159l187 -292h-90z" />
<glyph unicode="&#xd3;" horiz-adv-x="1403" d="M76 638q0 133 50 254t135.5 209t181.5 135q123 60 264 60q164 0 309.5 -84t227.5 -244t82 -355q0 -287 -179 -469.5t-443 -182.5q-149 0 -276 62q-97 48 -175.5 130t-118.5 175q-58 135 -58 310zM332 615q0 -114 23 -221t71 -184t117.5 -120t153.5 -43q101 0 186.5 53.5 t138 185t52.5 337.5q0 127 -23 241t-69 189t-115.5 118t-163.5 43q-83 0 -149 -37t-113 -108.5t-74 -171.5q-35 -132 -35 -282zM621 1367l194 294h159l-263 -294h-90z" />
<glyph unicode="&#xd4;" horiz-adv-x="1403" d="M76 638q0 133 50 254t135.5 209t181.5 135q123 60 264 60q164 0 309.5 -84t227.5 -244t82 -355q0 -287 -179 -469.5t-443 -182.5q-149 0 -276 62q-97 48 -175.5 130t-118.5 175q-58 135 -58 310zM332 615q0 -114 23 -221t71 -184t117.5 -120t153.5 -43q101 0 186.5 53.5 t138 185t52.5 337.5q0 127 -23 241t-69 189t-115.5 118t-163.5 43q-83 0 -149 -37t-113 -108.5t-74 -171.5q-35 -132 -35 -282zM419 1367l201 299h145l204 -299h-90l-185 216l-185 -216h-90z" />
<glyph unicode="&#xd5;" horiz-adv-x="1403" d="M76 638q0 133 50 254t135.5 209t181.5 135q123 60 264 60q164 0 309.5 -84t227.5 -244t82 -355q0 -287 -179 -469.5t-443 -182.5q-149 0 -276 62q-97 48 -175.5 130t-118.5 175q-58 135 -58 310zM332 615q0 -114 23 -221t71 -184t117.5 -120t153.5 -43q101 0 186.5 53.5 t138 185t52.5 337.5q0 127 -23 241t-69 189t-115.5 118t-163.5 43q-83 0 -149 -37t-113 -108.5t-74 -171.5q-35 -132 -35 -282zM417 1419q8 82 56.5 126.5t123.5 44.5q28 0 83 -14l96 -25q26 -7 39 -7q27 0 51 18.5t35 51.5h75q-7 -80 -58.5 -127t-130.5 -47q-38 0 -86 15 l-68 21q-29 10 -49 10q-34 0 -58 -17t-33 -45z" />
<glyph unicode="&#xd6;" horiz-adv-x="1403" d="M76 638q0 133 50 254t135.5 209t181.5 135q123 60 264 60q164 0 309.5 -84t227.5 -244t82 -355q0 -287 -179 -469.5t-443 -182.5q-149 0 -276 62q-97 48 -175.5 130t-118.5 175q-58 135 -58 310zM332 615q0 -114 23 -221t71 -184t117.5 -120t153.5 -43q101 0 186.5 53.5 t138 185t52.5 337.5q0 127 -23 241t-69 189t-115.5 118t-163.5 43q-83 0 -149 -37t-113 -108.5t-74 -171.5q-35 -132 -35 -282zM455 1514q0 34 24.5 58.5t60.5 24.5t61 -24t25 -57q0 -35 -26 -60t-61 -25t-59.5 24.5t-24.5 58.5zM777 1514q0 34 25 58.5t60 24.5q36 0 61 -24 t25 -57q0 -35 -25.5 -60t-61.5 -25q-35 0 -59.5 24.5t-24.5 58.5z" />
<glyph unicode="&#xd7;" horiz-adv-x="1229" d="M114 144l379 378l-379 379l122 122l378 -379l379 379l122 -122l-379 -379l379 -378l-122 -122l-379 378l-378 -378z" />
<glyph unicode="&#xd8;" horiz-adv-x="1403" d="M69 -142l203 275l-78 87q-32 44 -59 106t-43 138.5t-16 157.5q0 287 186.5 480.5t444.5 193.5q184 0 344 -105l139 189h116l-183 -248q35 -31 85.5 -107t84 -176t33.5 -234q0 -290 -179 -472t-443 -182q-198 0 -360 113l-159 -216h-116zM332 615q0 -177 54 -327l581 788 q-42 65 -111.5 101.5t-152.5 36.5q-72 0 -128.5 -26.5t-95.5 -69t-72 -111t-54 -172t-21 -220.5zM435 197q31 -63 106 -106.5t163 -43.5q97 0 182 56.5t136.5 184.5t51.5 328q0 113 -17.5 216t-40.5 155z" />
<glyph unicode="&#xd9;" horiz-adv-x="1251" d="M175 365v891h232v-881q0 -126 78.5 -204.5t198.5 -78.5q70 0 131.5 26.5t93.5 62.5t50 94q10 33 10 88v893h111v-917q0 -164 -115.5 -269.5t-329.5 -105.5q-149 0 -252 48.5t-155.5 141t-52.5 211.5zM447 1661h159l187 -292h-90z" />
<glyph unicode="&#xda;" horiz-adv-x="1251" d="M175 365v891h232v-881q0 -126 78.5 -204.5t198.5 -78.5q70 0 131.5 26.5t93.5 62.5t50 94q10 33 10 88v893h111v-917q0 -164 -115.5 -269.5t-329.5 -105.5q-149 0 -252 48.5t-155.5 141t-52.5 211.5zM542 1369l194 294h159l-263 -294h-90z" />
<glyph unicode="&#xdb;" horiz-adv-x="1251" d="M175 365v891h232v-881q0 -126 78.5 -204.5t198.5 -78.5q70 0 131.5 26.5t93.5 62.5t50 94q10 33 10 88v893h111v-917q0 -164 -115.5 -269.5t-329.5 -105.5q-149 0 -252 48.5t-155.5 141t-52.5 211.5zM397 1369l201 299h145l204 -299h-90l-185 216l-185 -216h-90z" />
<glyph unicode="&#xdc;" horiz-adv-x="1251" d="M175 365v891h232v-881q0 -126 78.5 -204.5t198.5 -78.5q70 0 131.5 26.5t93.5 62.5t50 94q10 33 10 88v893h111v-917q0 -164 -115.5 -269.5t-329.5 -105.5q-149 0 -252 48.5t-155.5 141t-52.5 211.5zM423 1515q0 34 24.5 58.5t60.5 24.5t61 -24t25 -57q0 -35 -26 -60 t-61 -25t-59.5 24.5t-24.5 58.5zM745 1515q0 34 25 58.5t60 24.5q36 0 61 -24t25 -57q0 -35 -25.5 -60t-61.5 -25q-35 0 -59.5 24.5t-24.5 58.5z" />
<glyph unicode="&#xdd;" horiz-adv-x="1063" d="M5 1256h277l325 -497l332 497h142l-415 -611v-645h-234l-3 609zM476 1365l194 294h159l-263 -294h-90z" />
<glyph unicode="&#xde;" horiz-adv-x="1100" d="M171 0v1256h225v-188h256q180 0 294 -101t114 -271q0 -128 -56 -210.5t-162.5 -118t-340.5 -35.5q-13 0 -105 1v-333h-225zM396 409q47 -2 69 -2q128 0 199.5 28.5t114.5 92t43 179.5q0 103 -39 172t-109.5 98t-208.5 29h-69v-597z" />
<glyph unicode="&#xdf;" horiz-adv-x="1063" d="M133 0v1095q0 86 24 141q31 72 101.5 113t197.5 41q126 0 217.5 -36t131 -99.5t39.5 -142.5q0 -77 -34.5 -130t-140.5 -117q-56 -34 -65 -43.5t-9 -19.5q0 -13 9.5 -21.5t79.5 -42.5q105 -51 158 -97q73 -63 106.5 -132.5t33.5 -164.5q0 -100 -33.5 -168t-93 -113.5 t-135.5 -68t-181 -22.5q-63 0 -112 5t-62 9v71q53 -12 124 -12q135 0 212 78t77 213q0 64 -16 117.5t-44 93.5t-100 112t-85.5 94t-13.5 45q0 22 13.5 45t73 82t80.5 99.5t21 90.5q0 78 -55.5 145t-174.5 67q-94 0 -141 -54q-32 -38 -32 -128l-3 -1145h-168z" />
<glyph unicode="&#xe0;" horiz-adv-x="797" d="M43 0l197 711q22 81 61.5 113.5t101.5 32.5q45 0 74 -17t50 -50q11 -17 28 -73l213 -717h-185l-73 256h-315l-69 -256h-83zM128 1253h159l187 -292h-90zM218 332h268l-111 385q-3 8 -9 13.5t-14 5.5q-9 0 -17 -6t-10 -14z" />
<glyph unicode="&#xe1;" horiz-adv-x="797" d="M43 0l197 711q22 81 61.5 113.5t101.5 32.5q45 0 74 -17t50 -50q11 -17 28 -73l213 -717h-185l-73 256h-315l-69 -256h-83zM218 332h268l-111 385q-3 8 -9 13.5t-14 5.5q-9 0 -17 -6t-10 -14zM317 961l194 294h159l-263 -294h-90z" />
<glyph unicode="&#xe2;" horiz-adv-x="797" d="M43 0l197 711q22 81 61.5 113.5t101.5 32.5q45 0 74 -17t50 -50q11 -17 28 -73l213 -717h-185l-73 256h-315l-69 -256h-83zM116 961l201 299h145l204 -299h-90l-185 216l-185 -216h-90zM218 332h268l-111 385q-3 8 -9 13.5t-14 5.5q-9 0 -17 -6t-10 -14z" />
<glyph unicode="&#xe3;" horiz-adv-x="797" d="M43 0l197 711q22 81 61.5 113.5t101.5 32.5q45 0 74 -17t50 -50q11 -17 28 -73l213 -717h-185l-73 256h-315l-69 -256h-83zM114 1013q8 82 56.5 126.5t123.5 44.5q28 0 83 -14l96 -25q26 -7 39 -7q27 0 51 18.5t35 51.5h75q-7 -80 -58.5 -127t-130.5 -47q-38 0 -86 15 l-68 21q-29 10 -49 10q-34 0 -58 -17t-33 -45zM218 332h268l-111 385q-3 8 -9 13.5t-14 5.5q-9 0 -17 -6t-10 -14z" />
<glyph unicode="&#xe4;" horiz-adv-x="797" d="M43 0l197 711q22 81 61.5 113.5t101.5 32.5q45 0 74 -17t50 -50q11 -17 28 -73l213 -717h-185l-73 256h-315l-69 -256h-83zM151 1108q0 34 24.5 58.5t60.5 24.5t61 -24t25 -57q0 -35 -26 -60t-61 -25t-59.5 24.5t-24.5 58.5zM218 332h268l-111 385q-3 8 -9 13.5t-14 5.5 q-9 0 -17 -6t-10 -14zM473 1108q0 34 25 58.5t60 24.5q36 0 61 -24t25 -57q0 -35 -25.5 -60t-61.5 -25q-35 0 -59.5 24.5t-24.5 58.5z" />
<glyph unicode="&#xe5;" horiz-adv-x="797" d="M43 0l197 711q22 81 61.5 113.5t101.5 32.5q45 0 74 -17t50 -50q11 -17 28 -73l213 -717h-185l-73 256h-315l-69 -256h-83zM180 1183q0 88 60.5 148t147.5 60q90 0 153 -62t63 -149q0 -88 -61.5 -150t-148.5 -62q-81 0 -147.5 56t-66.5 159zM218 332h268l-111 385 q-3 8 -9 13.5t-14 5.5q-9 0 -17 -6t-10 -14zM249 1180q0 -61 42.5 -104t101.5 -43q57 0 97.5 41.5t40.5 101.5q0 57 -41.5 98t-103.5 41q-57 0 -97 -39.5t-40 -95.5z" />
<glyph unicode="&#xe6;" horiz-adv-x="1214" d="M19 0l459 774q24 40 43.5 52.5t49.5 12.5h581v-66h-327q-29 0 -40.5 -12.5t-11.5 -48.5v-233h303v-81h-303v-289q0 -18 12 -28t42 -10h344v-71h-384q-68 0 -96 9q-40 13 -65.5 45t-25.5 76v164h-308l-176 -294h-97zM339 375h254v398q-13 -2 -25 -9.5t-16 -14.5z" />
<glyph unicode="&#xe7;" horiz-adv-x="872" d="M66 409q0 122 55.5 230.5t151.5 166t210 57.5q116 0 207 -59q66 -43 120 -128l-71 -41q-43 82 -89 116q-63 45 -143 45q-116 0 -179 -101t-63 -276q0 -163 60 -271t185 -108q74 0 129 37t122 143l61 -37q-65 -114 -145 -164t-185 -52l-18 -71q19 3 36 3q73 0 123 -43.5 t50 -92.5q0 -52 -46 -88q-66 -52 -161 -52q-114 0 -220 45l19 62q90 -55 188 -55q48 0 76 24t28 57q0 32 -27 56.5t-76 24.5q-39 0 -66 -10l45 142q-163 16 -270 138t-107 302z" />
<glyph unicode="&#xe8;" horiz-adv-x="758" d="M142 161v515q0 66 18 99.5t51.5 47.5t124.5 14h351v-67h-329q-26 0 -35.5 -11t-9.5 -50v-235h308v-81h-308v-265q0 -30 15.5 -46t45.5 -16h337v-66h-432q-48 0 -77.5 16t-44.5 48.5t-15 96.5zM213 1250h159l187 -292h-90z" />
<glyph unicode="&#xe9;" horiz-adv-x="758" d="M142 161v515q0 66 18 99.5t51.5 47.5t124.5 14h351v-67h-329q-26 0 -35.5 -11t-9.5 -50v-235h308v-81h-308v-265q0 -30 15.5 -46t45.5 -16h337v-66h-432q-48 0 -77.5 16t-44.5 48.5t-15 96.5zM298 958l194 294h159l-263 -294h-90z" />
<glyph unicode="&#xea;" horiz-adv-x="758" d="M125 958l201 299h145l204 -299h-90l-185 216l-185 -216h-90zM142 161v515q0 66 18 99.5t51.5 47.5t124.5 14h351v-67h-329q-26 0 -35.5 -11t-9.5 -50v-235h308v-81h-308v-265q0 -30 15.5 -46t45.5 -16h337v-66h-432q-48 0 -77.5 16t-44.5 48.5t-15 96.5z" />
<glyph unicode="&#xeb;" horiz-adv-x="758" d="M142 161v515q0 66 18 99.5t51.5 47.5t124.5 14h351v-67h-329q-26 0 -35.5 -11t-9.5 -50v-235h308v-81h-308v-265q0 -30 15.5 -46t45.5 -16h337v-66h-432q-48 0 -77.5 16t-44.5 48.5t-15 96.5zM175 1105q0 34 24.5 58.5t60.5 24.5t61 -24t25 -57q0 -35 -26 -60t-61 -25 t-59.5 24.5t-24.5 58.5zM497 1105q0 34 25 58.5t60 24.5q36 0 61 -24t25 -57q0 -35 -25.5 -60t-61.5 -25q-35 0 -59.5 24.5t-24.5 58.5z" />
<glyph unicode="&#xec;" horiz-adv-x="455" d="M-33 1252h159l187 -292h-90zM142 0v834h171v-834h-171z" />
<glyph unicode="&#xed;" horiz-adv-x="455" d="M142 0v834h171v-834h-171zM146 960l194 294h159l-263 -294h-90z" />
<glyph unicode="&#xee;" horiz-adv-x="455" d="M-55 960l201 299h145l204 -299h-90l-185 216l-185 -216h-90zM142 0v834h171v-834h-171z" />
<glyph unicode="&#xef;" horiz-adv-x="455" d="M-19 1107q0 34 24.5 58.5t60.5 24.5t61 -24t25 -57q0 -35 -26 -60t-61 -25t-59.5 24.5t-24.5 58.5zM142 0v834h171v-834h-171zM303 1107q0 34 25 58.5t60 24.5q36 0 61 -24t25 -57q0 -35 -25.5 -60t-61.5 -25q-35 0 -59.5 24.5t-24.5 58.5z" />
<glyph unicode="&#xf0;" horiz-adv-x="985" d="M58 437q0 176 119 297t287 121q87 0 153.5 -31.5t122.5 -95.5q-18 140 -63.5 228.5t-139.5 172.5l-206 -126l-57 55l197 122q-126 85 -263 107l32 59q79 -10 150 -34t173 -76l196 121l59 -56l-183 -112q163 -117 235.5 -290.5t72.5 -382.5q0 -267 -124 -406t-312 -139 q-123 0 -226.5 60t-163 171.5t-59.5 234.5zM264 419q0 -138 44 -225.5t100 -122.5t107 -35q87 0 143 76q79 107 79 314q0 101 -20 168q-14 49 -44 96.5t-77.5 75.5t-101.5 28q-86 0 -147 -80q-83 -109 -83 -295z" />
<glyph unicode="&#xf1;" horiz-adv-x="948" d="M137 0v721q0 53 34.5 86.5t94.5 33.5q86 0 132 -68l306 -455q7 -11 15 -11q5 0 8 4.5t3 20.5v498h80v-773q0 -39 -15 -56.5t-41 -17.5q-44 0 -77 50l-429 652q-4 7 -12 7q-6 0 -10 -5t-4 -14v-673h-85zM200 1014q8 82 56.5 126.5t123.5 44.5q28 0 83 -14l96 -25 q26 -7 39 -7q27 0 51 18.5t35 51.5h75q-7 -80 -58.5 -127t-130.5 -47q-38 0 -86 15l-68 21q-29 10 -49 10q-34 0 -58 -17t-33 -45z" />
<glyph unicode="&#xf2;" horiz-adv-x="985" d="M57 425q0 115 55.5 216.5t160 158t217.5 56.5q117 0 220 -56t164 -165.5t61 -232.5q0 -105 -39 -187t-96.5 -134.5t-132 -81t-157.5 -28.5q-190 0 -321.5 133.5t-131.5 320.5zM242 1252h159l187 -292h-90zM263 421q0 -192 88 -303q65 -82 166 -82q88 0 142 74 q77 104 77 318q0 87 -26 173q-15 50 -42.5 94.5t-71.5 71.5t-103 27q-115 0 -172.5 -108.5t-57.5 -264.5z" />
<glyph unicode="&#xf3;" horiz-adv-x="985" d="M57 425q0 115 55.5 216.5t160 158t217.5 56.5q117 0 220 -56t164 -165.5t61 -232.5q0 -105 -39 -187t-96.5 -134.5t-132 -81t-157.5 -28.5q-190 0 -321.5 133.5t-131.5 320.5zM263 421q0 -192 88 -303q65 -82 166 -82q88 0 142 74q77 104 77 318q0 87 -26 173 q-15 50 -42.5 94.5t-71.5 71.5t-103 27q-115 0 -172.5 -108.5t-57.5 -264.5zM393 960l194 294h159l-263 -294h-90z" />
<glyph unicode="&#xf4;" horiz-adv-x="985" d="M57 425q0 115 55.5 216.5t160 158t217.5 56.5q117 0 220 -56t164 -165.5t61 -232.5q0 -105 -39 -187t-96.5 -134.5t-132 -81t-157.5 -28.5q-190 0 -321.5 133.5t-131.5 320.5zM211 960l201 299h145l204 -299h-90l-185 216l-185 -216h-90zM263 421q0 -192 88 -303 q65 -82 166 -82q88 0 142 74q77 104 77 318q0 87 -26 173q-15 50 -42.5 94.5t-71.5 71.5t-103 27q-115 0 -172.5 -108.5t-57.5 -264.5z" />
<glyph unicode="&#xf5;" horiz-adv-x="985" d="M57 425q0 115 55.5 216.5t160 158t217.5 56.5q117 0 220 -56t164 -165.5t61 -232.5q0 -105 -39 -187t-96.5 -134.5t-132 -81t-157.5 -28.5q-190 0 -321.5 133.5t-131.5 320.5zM208 1012q8 82 56.5 126.5t123.5 44.5q28 0 83 -14l96 -25q26 -7 39 -7q27 0 51 18.5t35 51.5 h75q-7 -80 -58.5 -127t-130.5 -47q-38 0 -86 15l-68 21q-29 10 -49 10q-34 0 -58 -17t-33 -45zM263 421q0 -192 88 -303q65 -82 166 -82q88 0 142 74q77 104 77 318q0 87 -26 173q-15 50 -42.5 94.5t-71.5 71.5t-103 27q-115 0 -172.5 -108.5t-57.5 -264.5z" />
<glyph unicode="&#xf6;" horiz-adv-x="985" d="M57 425q0 115 55.5 216.5t160 158t217.5 56.5q117 0 220 -56t164 -165.5t61 -232.5q0 -105 -39 -187t-96.5 -134.5t-132 -81t-157.5 -28.5q-190 0 -321.5 133.5t-131.5 320.5zM246 1107q0 34 24.5 58.5t60.5 24.5t61 -24t25 -57q0 -35 -26 -60t-61 -25t-59.5 24.5 t-24.5 58.5zM263 421q0 -192 88 -303q65 -82 166 -82q88 0 142 74q77 104 77 318q0 87 -26 173q-15 50 -42.5 94.5t-71.5 71.5t-103 27q-115 0 -172.5 -108.5t-57.5 -264.5zM568 1107q0 34 25 58.5t60 24.5q36 0 61 -24t25 -57q0 -35 -25.5 -60t-61.5 -25q-35 0 -59.5 24.5 t-24.5 58.5z" />
<glyph unicode="&#xf7;" horiz-adv-x="1229" d="M92 436v172h1044v-172h-1044zM498 31v250h233v-250h-233zM498 764v250h233v-250h-233z" />
<glyph unicode="&#xf8;" horiz-adv-x="985" d="M57 436q0 177 118.5 298.5t287.5 121.5q102 0 195 -39l106 202h85l-125 -238q88 -54 149.5 -159t61.5 -234q0 -180 -121 -298t-308 -118q-99 0 -183 38l-119 -228h-85l138 266q-93 67 -146.5 169.5t-53.5 218.5zM263 426q0 -81 17 -152.5t40 -104.5l299 572 q-55 53 -130 53q-82 0 -143 -80q-83 -109 -83 -288zM370 102q24 -28 66.5 -47.5t83.5 -19.5q73 0 132 80q83 112 83 289q0 161 -65 272z" />
<glyph unicode="&#xf9;" horiz-adv-x="872" d="M133 296v543h180v-592q0 -48 21 -86t63 -58.5t90 -20.5q80 0 128.5 55.5t48.5 182.5v519h81v-514q0 -132 -27 -193.5t-100 -103.5t-174 -42q-149 0 -230 78t-81 232zM244 1252h159l187 -292h-90z" />
<glyph unicode="&#xfa;" horiz-adv-x="872" d="M133 296v543h180v-592q0 -48 21 -86t63 -58.5t90 -20.5q80 0 128.5 55.5t48.5 182.5v519h81v-514q0 -132 -27 -193.5t-100 -103.5t-174 -42q-149 0 -230 78t-81 232zM358 960l194 294h159l-263 -294h-90z" />
<glyph unicode="&#xfb;" horiz-adv-x="872" d="M133 296v543h180v-592q0 -48 21 -86t63 -58.5t90 -20.5q80 0 128.5 55.5t48.5 182.5v519h81v-514q0 -132 -27 -193.5t-100 -103.5t-174 -42q-149 0 -230 78t-81 232zM166 960l201 299h145l204 -299h-90l-185 216l-185 -216h-90z" />
<glyph unicode="&#xfc;" horiz-adv-x="872" d="M133 296v543h180v-592q0 -48 21 -86t63 -58.5t90 -20.5q80 0 128.5 55.5t48.5 182.5v519h81v-514q0 -132 -27 -193.5t-100 -103.5t-174 -42q-149 0 -230 78t-81 232zM201 1107q0 34 24.5 58.5t60.5 24.5t61 -24t25 -57q0 -35 -26 -60t-61 -25t-59.5 24.5t-24.5 58.5z M523 1107q0 34 25 58.5t60 24.5q36 0 61 -24t25 -57q0 -35 -25.5 -60t-61.5 -25q-35 0 -59.5 24.5t-24.5 58.5z" />
<glyph unicode="&#xfd;" horiz-adv-x="797" d="M19 839h192l235 -607l246 607h90l-505 -1232h-90l159 386zM298 960l194 294h159l-263 -294h-90z" />
<glyph unicode="&#xfe;" horiz-adv-x="948" d="M137 -389v1783h180v-555q171 -4 241.5 -16.5t123.5 -40.5t102.5 -83.5t75.5 -129.5t26 -161q0 -114 -44 -202t-106 -130.5t-145 -60.5q-50 -10 -136 -10h-138v-394h-180zM317 76q50 -5 78 -5q118 0 174.5 30.5t88 104.5t31.5 192q0 193 -82.5 284.5t-236.5 91.5 q-18 0 -53 -1v-697z" />
<glyph unicode="&#xff;" horiz-adv-x="797" d="M19 839h192l235 -607l246 607h90l-505 -1232h-90l159 386zM151 1107q0 34 24.5 58.5t60.5 24.5t61 -24t25 -57q0 -35 -26 -60t-61 -25t-59.5 24.5t-24.5 58.5zM473 1107q0 34 25 58.5t60 24.5q36 0 61 -24t25 -57q0 -35 -25.5 -60t-61.5 -25q-35 0 -59.5 24.5t-24.5 58.5 z" />
<glyph unicode="&#x152;" horiz-adv-x="1896" d="M71 618q0 289 183.5 480.5t440.5 191.5q129 0 236 -50q75 -35 143 -102v123h718v-90h-502v-469h474v-86h-474v-521h512v-95h-721v119q-100 -83 -210 -123q-80 -29 -179 -29q-266 0 -443.5 182.5t-177.5 468.5zM323 637q0 -130 29 -247.5t75.5 -188.5t116.5 -112t163 -41 q131 0 235 102t104 221v488q0 65 -11 104q-20 71 -63 126t-114 90t-152 35q-116 0 -201.5 -66.5t-133.5 -204.5t-48 -306z" />
<glyph unicode="&#x153;" horiz-adv-x="1327" d="M55 444q0 181 117 299t288 118q143 0 275 -91q16 35 46.5 52t69.5 17h417v-66h-346q-13 0 -23 -11t-10 -29v-259h308v-76h-308v-277q0 -25 18 -40t63 -15h317v-66h-341q-92 0 -132 14.5t-79 54.5q-108 -88 -248 -88q-177 0 -304.5 133t-127.5 330zM257 445 q0 -204 88 -322q61 -81 154 -81q83 0 149 66.5t66 166.5v282q0 125 -70.5 182.5t-147.5 57.5q-95 0 -167 -88t-72 -264z" />
<glyph unicode="&#x178;" horiz-adv-x="1063" d="M5 1256h277l325 -497l332 497h142l-415 -611v-645h-234l-3 609zM339 1521q0 34 24.5 58.5t60.5 24.5t61 -24t25 -57q0 -35 -26 -60t-61 -25t-59.5 24.5t-24.5 58.5zM661 1521q0 34 25 58.5t60 24.5q36 0 61 -24t25 -57q0 -35 -25.5 -60t-61.5 -25q-35 0 -59.5 24.5 t-24.5 58.5z" />
<glyph unicode="&#x2c6;" horiz-adv-x="455" d="M-55 960l201 299h145l204 -299h-90l-185 216l-185 -216h-90z" />
<glyph unicode="&#x2dc;" horiz-adv-x="455" d="M-57 1012q8 82 56.5 126.5t123.5 44.5q28 0 83 -14l96 -25q26 -7 39 -7q27 0 51 18.5t35 51.5h75q-7 -80 -58.5 -127t-130.5 -47q-38 0 -86 15l-68 21q-29 10 -49 10q-34 0 -58 -17t-33 -45z" />
<glyph unicode="&#x2000;" horiz-adv-x="897" />
<glyph unicode="&#x2001;" horiz-adv-x="1795" />
<glyph unicode="&#x2002;" horiz-adv-x="897" />
<glyph unicode="&#x2003;" horiz-adv-x="1795" />
<glyph unicode="&#x2004;" horiz-adv-x="598" />
<glyph unicode="&#x2005;" horiz-adv-x="448" />
<glyph unicode="&#x2006;" horiz-adv-x="299" />
<glyph unicode="&#x2007;" horiz-adv-x="299" />
<glyph unicode="&#x2008;" horiz-adv-x="224" />
<glyph unicode="&#x2009;" horiz-adv-x="359" />
<glyph unicode="&#x200a;" horiz-adv-x="99" />
<glyph unicode="&#x2010;" horiz-adv-x="682" d="M95 201v164l498 266v-164z" />
<glyph unicode="&#x2011;" horiz-adv-x="682" d="M95 201v164l498 266v-164z" />
<glyph unicode="&#x2012;" horiz-adv-x="682" d="M95 201v164l498 266v-164z" />
<glyph unicode="&#x2013;" horiz-adv-x="1024" d="M0 393v124h1024v-124h-1024z" />
<glyph unicode="&#x2014;" horiz-adv-x="2048" d="M256 393v124h1531v-124h-1531z" />
<glyph unicode="&#x2018;" horiz-adv-x="569" d="M82 838q0 27 16 49l277 379l19 -5l-123 -444q-9 -35 -36 -57t-57 -22q-39 0 -72 32q-24 23 -24 68z" />
<glyph unicode="&#x2019;" horiz-adv-x="569" d="M164 780l129 435q12 41 39.5 62.5t62.5 21.5q41 0 67 -26.5t26 -67.5q0 -37 -32 -80l-275 -355z" />
<glyph unicode="&#x201a;" horiz-adv-x="569" d="M59 -363l121 453q16 61 48.5 88t74.5 27t69 -27.5t27 -71.5q0 -40 -32 -82l-294 -391z" />
<glyph unicode="&#x201c;" horiz-adv-x="797" d="M17 847q0 41 37 87l282 358l9 -21l-130 -437q-11 -37 -39.5 -58t-64.5 -21q-38 0 -66 28t-28 64zM351 848q0 40 37 86l282 358l9 -21l-130 -437q-11 -37 -39.5 -58t-63.5 -21q-39 0 -67 28t-28 65z" />
<glyph unicode="&#x201d;" horiz-adv-x="797" d="M104 759l135 425q18 60 47.5 84.5t64.5 24.5q39 0 64.5 -26.5t25.5 -66.5q0 -42 -45 -99l-271 -342h-21zM445 759l135 425q19 60 48 84.5t65 24.5q38 0 63.5 -26.5t25.5 -66.5q0 -42 -45 -99l-271 -342h-21z" />
<glyph unicode="&#x201e;" horiz-adv-x="797" d="M121 -327l105 369q31 107 62 137t73 30t69.5 -26t27.5 -69q0 -39 -31 -78l-292 -365zM460 -327l105 369q31 107 62 137t73 30t69.5 -26t27.5 -69q0 -39 -31 -78l-292 -365z" />
<glyph unicode="&#x2022;" horiz-adv-x="1026" d="M142 732q0 97 50 185.5t139 136.5t182 48t182 -48t138.5 -137t49.5 -185q0 -95 -49 -183.5t-137 -137.5t-184 -49q-97 0 -185 49.5t-137 137t-49 183.5z" />
<glyph unicode="&#x2026;" horiz-adv-x="2046" d="M225 0v268h234v-268h-234zM907 0v268h233v-268h-233zM1589 0v268h233v-268h-233z" />
<glyph unicode="&#x202f;" horiz-adv-x="359" />
<glyph unicode="&#x2039;" horiz-adv-x="569" d="M128 322v190l322 247v-176l-213 -168l213 -166v-176z" />
<glyph unicode="&#x203a;" horiz-adv-x="569" d="M114 78v176l218 161l-218 168v176l322 -247v-190z" />
<glyph unicode="&#x205f;" horiz-adv-x="448" />
<glyph unicode="&#x2122;" horiz-adv-x="2038" d="M244 1366v98h600v-98h-238v-618h-122v618h-240zM990 748v716h180l194 -532l195 532h180v-716h-111v605l-217 -605h-94l-217 605v-605h-110z" />
<glyph unicode="&#x25fc;" horiz-adv-x="840" d="M0 0v840h840v-840h-840z" />
<glyph unicode="&#xfb01;" horiz-adv-x="985" d="M154 0v1183q0 99 69.5 156.5t232.5 57.5q29 0 61 -3v-78q-20 3 -43 3q-75 0 -108.5 -31.5t-33.5 -92.5v-351h194v-76h-194v-768h-178zM647 1129q0 46 32 78.5t79 32.5q49 0 83 -33.5t34 -80.5t-33.5 -80.5t-80.5 -33.5q-46 0 -80 34.5t-34 82.5zM671 0v834h170v-834h-170 z" />
<glyph unicode="&#xfb02;" horiz-adv-x="985" d="M154 0v1183q0 99 69.5 156.5t232.5 57.5q29 0 61 -3v-78q-20 3 -43 3q-75 0 -108.5 -31.5t-33.5 -92.5v-351h194v-76h-194v-768h-178zM675 119v1275h176v-1290q0 -16 11 -24.5t46 -8.5h85v-71h-175q-62 0 -85.5 7.5t-40.5 35.5t-17 76z" />
</font>
</defs>
</svg>
